<svg width="176" height="324" viewBox="0 0 176 324" fill="none" xmlns="http://www.w3.org/2000/svg">
<g id="Find Out More Background Shapes">
<path id="Path 3" fill-rule="evenodd" clip-rule="evenodd" d="M228.733 -90.3335C178.011 -106.215 125.857 -132.703 72.4619 -84.3216C19.067 -35.9405 -14.5019 6.44112 7.17596 61.2775C28.8538 116.114 117.341 81.9585 143.051 130.969C168.761 179.98 112.27 224.461 136.625 268.08C160.979 311.7 179.706 339.656 257.975 311.921C336.243 284.187 329.026 213.618 388.546 172.293C448.065 130.969 512.461 69.105 424.087 -41.2832C335.714 -151.671 279.455 -74.4526 228.733 -90.3335Z" stroke="#9E96C6"/>
<path id="Path 3 Copy" fill-rule="evenodd" clip-rule="evenodd" d="M235.214 -64.4178C193.942 -77.3051 151.503 -98.8001 108.056 -59.5391C64.6081 -20.2781 37.2929 14.1143 54.9323 58.6137C72.5716 103.113 144.574 75.3962 165.495 115.168C186.415 154.94 140.448 191.036 160.265 226.433C180.083 261.83 195.321 284.516 259.008 262.01C322.695 239.503 316.823 182.237 365.254 148.702C413.685 115.168 466.085 64.9656 394.175 -24.6137C322.265 -114.193 276.487 -51.5305 235.214 -64.4178Z" stroke="#9E96C6"/>
<path id="Path 3 Copy 2" fill-rule="evenodd" clip-rule="evenodd" d="M247.026 -47.6553C213.574 -58.1696 179.176 -75.7066 143.961 -43.675C108.745 -11.6433 86.6058 16.4162 100.903 52.7217C115.2 89.0272 173.56 66.4139 190.517 98.8624C207.473 131.311 170.216 160.76 186.278 189.639C202.341 218.518 214.692 237.027 266.312 218.665C317.932 200.303 313.173 153.581 352.427 126.222C391.682 98.8624 434.153 57.904 375.868 -15.1806C317.583 -88.2652 280.479 -37.141 247.026 -47.6553Z" stroke="#9E96C6"/>
<path id="Path 3 Copy 5" fill-rule="evenodd" clip-rule="evenodd" d="M259.192 -27.4944C232.147 -35.9277 204.339 -49.9938 175.869 -24.3018C147.4 1.39024 129.501 23.8963 141.06 53.0164C152.618 82.1364 199.798 63.9986 213.507 90.025C227.215 116.051 197.095 139.672 210.08 162.836C223.066 185.999 233.051 200.845 274.783 186.117C316.515 171.389 312.667 133.914 344.402 111.97C376.137 90.025 410.473 57.173 363.353 -1.44695C316.233 -60.0669 286.236 -19.061 259.192 -27.4944Z" stroke="#9E96C6"/>
<path id="Path 3 Copy 4" fill-rule="evenodd" clip-rule="evenodd" d="M261.71 -13.5863C239.662 -20.4863 216.991 -31.995 193.781 -10.9742C170.571 10.0466 155.979 28.4606 165.402 52.2861C174.825 76.1116 213.289 61.2716 224.465 82.5659C235.641 103.86 211.085 123.187 221.672 142.138C232.259 161.09 240.399 173.237 274.421 161.186C308.444 149.136 305.307 118.475 331.179 100.521C357.052 82.5659 385.044 55.687 346.629 7.72522C308.214 -40.2365 283.759 -6.68628 261.71 -13.5863Z" stroke="#9E96C6"/>
</g>
</svg>
