<svg width="768" height="218" viewBox="0 0 768 218" fill="none" xmlns="http://www.w3.org/2000/svg">
<path fill-rule="evenodd" clip-rule="evenodd" d="M388.564 41.3424C292.876 11.4059 194.487 -38.5259 93.7569 52.6753C-6.97311 143.877 -70.3013 223.768 -29.4057 327.138C11.4898 430.508 178.421 366.123 226.924 458.511C275.427 550.899 168.855 634.748 214.801 716.973C260.746 799.198 296.075 851.897 443.728 799.616C591.382 747.334 577.768 614.308 690.052 536.409C802.335 458.511 923.819 341.893 757.102 133.805C590.384 -74.283 484.251 71.279 388.564 41.3424Z" stroke="#96A9C6"/>
<path fill-rule="evenodd" clip-rule="evenodd" d="M400.902 90.672C322.919 66.3577 242.733 25.8034 160.64 99.8765C78.5463 173.95 26.935 238.837 60.2641 322.794C93.5932 406.75 229.64 354.457 269.169 429.494C308.697 504.531 221.844 572.633 259.288 639.416C296.733 706.199 325.525 749 445.86 706.538C566.195 664.075 555.1 556.032 646.61 492.763C738.119 429.494 837.126 334.778 701.254 165.77C565.382 -3.23838 478.885 114.986 400.902 90.672Z" stroke="#96A9C6"/>
<path fill-rule="evenodd" clip-rule="evenodd" d="M423.947 122.546C360.844 102.722 295.958 69.6572 229.529 130.05C163.099 190.443 121.336 243.347 148.306 311.798C175.275 380.249 285.363 337.614 317.35 398.792C349.336 459.971 279.054 515.496 309.354 569.945C339.654 624.394 362.953 659.291 460.327 624.67C557.701 590.05 548.723 501.961 622.772 450.376C696.82 398.792 776.936 321.569 666.99 183.774C557.043 45.979 487.051 142.369 423.947 122.546Z" stroke="#96A9C6"/>
<path fill-rule="evenodd" clip-rule="evenodd" d="M447.21 162.166C396.271 146.285 343.894 119.797 290.27 168.178C236.647 216.559 202.934 258.941 224.705 313.777C246.475 368.614 335.341 334.458 361.162 383.469C386.982 432.48 330.249 476.961 354.708 520.58C379.167 564.199 397.974 592.156 476.577 564.421C555.181 536.686 547.933 466.118 607.707 424.793C667.482 383.469 732.153 321.605 643.401 211.217C554.649 100.829 498.149 178.047 447.21 162.166Z" stroke="#96A9C6"/>
<path fill-rule="evenodd" clip-rule="evenodd" d="M452.18 187.232C410.582 174.235 367.809 152.557 324.018 192.152C280.227 231.746 252.697 266.431 270.475 311.309C288.254 356.186 360.825 328.234 381.91 368.344C402.996 408.454 356.666 444.857 376.64 480.554C396.614 516.252 411.972 539.131 476.162 516.433C540.352 493.735 534.434 435.982 583.247 402.163C632.061 368.344 684.874 317.715 612.396 227.374C539.918 137.033 493.779 200.228 452.18 187.232Z" stroke="#96A9C6"/>
<path fill-rule="evenodd" clip-rule="evenodd" d="M463.992 205.894C430.214 195.344 395.482 177.746 359.923 209.889C324.365 242.031 302.009 270.188 316.446 306.62C330.882 343.051 389.811 320.36 406.932 352.921C424.054 385.482 386.434 415.034 402.653 444.013C418.872 472.992 431.343 491.565 483.466 473.139C535.589 454.714 530.783 407.83 570.42 380.375C610.057 352.921 652.942 311.82 594.089 238.482C535.237 165.144 497.771 216.445 463.992 205.894Z" stroke="#96A9C6"/>
</svg>
