<svg width="86" height="86" viewBox="0 0 86 86" fill="none" xmlns="http://www.w3.org/2000/svg">
<rect width="86" height="86" rx="43" fill="#96A9C6"/>
<path d="M52.6074 49.8741L47.5125 47.3269C47.0319 47.0864 46.7333 46.6032 46.7333 46.0656V44.2624C46.8554 44.1131 46.9839 43.9429 47.1167 43.7552C47.7775 42.8219 48.3071 41.7829 48.6922 40.6624C49.4447 40.3173 49.9333 39.5733 49.9333 38.7333V36.6C49.9333 36.0864 49.7413 35.5888 49.3999 35.2V32.3632C49.4298 32.0699 49.5471 30.3237 48.2842 28.8832C47.1887 27.6336 45.4111 27 42.9999 27C40.5887 27 38.8111 27.6336 37.7157 28.8827C36.4527 30.3232 36.5701 32.0699 36.5999 32.3632V35.2C36.2586 35.5888 36.0666 36.0864 36.0666 36.6V38.7333C36.0666 39.3824 36.3615 39.9877 36.865 40.3915C37.3535 42.3259 38.3759 43.7835 38.7333 44.2512V46.016C38.7333 46.5323 38.4517 47.0059 37.9989 47.2533L33.241 49.8485C31.6938 50.6928 30.7333 52.3109 30.7333 54.0731V55.8C30.7333 58.3312 38.7573 59 42.9999 59C47.2426 59 55.2666 58.3312 55.2666 55.8V54.1771C55.2666 52.3435 54.2474 50.6944 52.6074 49.8741Z" fill="white"/>
</svg>
