<svg width="86" height="86" viewBox="0 0 86 86" fill="none" xmlns="http://www.w3.org/2000/svg">
<rect width="86" height="86" rx="43" fill="#96A9C6"/>
<path d="M43 27C51.8379 27 59 34.1641 59 43C59 51.8359 51.8379 59 43 59C34.1641 59 27 51.8359 27 43C27 34.1641 34.1641 27 43 27ZM42.0586 33V34.748C40.6562 34.9453 39.6289 35.4864 38.9766 36.3711C38.3242 37.2578 37.9961 38.2559 37.9961 39.3633C37.9961 40.207 38.1797 40.9492 38.5449 41.5859C38.9102 42.2207 39.3867 42.7148 39.9727 43.0664C40.5586 43.4218 41.3731 43.7774 42.4141 44.1387C43.5722 44.5488 44.3203 44.8868 44.6562 45.1543C44.9921 45.4199 45.1602 45.8125 45.1602 46.3301C45.1602 46.8301 44.9922 47.2558 44.6562 47.6094C44.3203 47.9629 43.7929 48.1387 43.0801 48.1387C41.5547 48.1387 40.6563 47.3144 40.3848 45.6641L37.4551 46.4277C38.0468 49.0527 39.5801 50.4942 42.0586 50.748V53H43.9531V50.7363C45.4395 50.5801 46.5762 50.0605 47.3633 49.1777C48.1504 48.2969 48.5449 47.1952 48.5449 45.873C48.5449 45.0118 48.3535 44.2598 47.9727 43.6152C47.5898 42.9727 47.08 42.4668 46.4395 42.1016C45.8008 41.7363 44.9179 41.3477 43.793 40.9375C42.7696 40.5606 42.0996 40.2461 41.7891 39.9922C41.4766 39.7363 41.3203 39.3711 41.3203 38.8945C41.3203 38.4277 41.4824 38.0293 41.8066 37.7012C42.1289 37.3731 42.5586 37.209 43.0938 37.209C44.1601 37.209 44.9453 37.9434 45.4551 39.4121L48.0645 38.3418C47.4415 36.1993 46.0703 35.002 43.9531 34.748V33H42.0586Z" fill="white"/>
</svg>
