<svg width="124" height="352" viewBox="0 0 124 352" fill="none" xmlns="http://www.w3.org/2000/svg">
<path fill-rule="evenodd" clip-rule="evenodd" d="M184.748 17.9825C143.801 5.16819 101.698 -16.205 58.5935 22.8335C15.4888 61.8721 -11.6108 96.0696 5.88937 140.317C23.3895 184.564 94.8233 157.004 115.579 196.551C136.334 236.097 90.7298 271.989 110.391 307.185C130.052 342.382 145.17 364.939 208.354 342.56C271.539 320.181 265.713 263.24 313.762 229.895C361.81 196.551 413.796 146.633 342.454 57.561C271.112 -31.5108 225.695 30.7968 184.748 17.9825Z" stroke="#9E96C6"/>
<path fill-rule="evenodd" clip-rule="evenodd" d="M189.537 40.6952C156.194 30.2904 121.908 12.9361 86.8069 44.634C51.7057 76.332 29.6379 104.099 43.8887 140.027C58.1395 175.954 116.31 153.576 133.211 185.687C150.113 217.797 112.976 246.94 128.987 275.518C144.997 304.096 157.308 322.412 208.761 304.241C260.213 286.07 255.469 239.836 294.596 212.761C333.724 185.687 376.057 145.155 317.961 72.8316C259.865 0.508297 222.881 51.1 189.537 40.6952Z" stroke="#9E96C6"/>
<path fill-rule="evenodd" clip-rule="evenodd" d="M199.703 54.0554C172.767 45.5855 145.071 31.4585 116.715 57.2617C88.36 83.065 70.5332 105.669 82.0453 134.915C93.5573 164.161 140.548 145.944 154.202 172.083C167.855 198.222 137.855 221.946 150.789 245.209C163.723 268.473 173.667 283.383 215.232 268.591C256.796 253.799 252.964 216.163 284.571 194.123C316.179 172.083 350.376 139.089 303.446 80.2155C256.515 21.3418 226.639 62.5252 199.703 54.0554Z" stroke="#9E96C6"/>
<path fill-rule="evenodd" clip-rule="evenodd" d="M209.733 71.814C187.902 64.987 165.454 53.6001 142.473 74.3984C119.491 95.1968 105.043 113.416 114.373 136.989C123.704 160.563 161.789 145.88 172.855 166.949C183.921 188.018 159.607 207.14 170.089 225.891C180.571 244.642 188.632 256.66 222.319 244.737C256.006 232.815 252.9 202.478 278.517 184.713C304.135 166.949 331.851 140.354 293.815 92.9C255.778 45.4458 231.564 78.641 209.733 71.814Z" stroke="#9E96C6"/>
</svg>
