<svg width="228" height="453" viewBox="0 0 228 453" fill="none" xmlns="http://www.w3.org/2000/svg">
<g id="Right Background Shapes">
<path id="Path 3" fill-rule="evenodd" clip-rule="evenodd" d="M-20.9701 23.0131C-73.6469 6.51152 -127.811 -21.0118 -183.264 29.26C-238.717 79.5319 -273.58 123.57 -251.067 180.549C-228.553 237.529 -136.656 202.038 -109.954 252.964C-83.2531 303.89 -141.922 350.11 -116.628 395.434C-91.335 440.758 -71.8863 469.806 9.39859 440.988C90.6835 412.17 83.189 338.843 145.002 295.904C206.816 252.964 273.694 188.683 181.914 73.9804C90.1343 -40.7218 31.7067 39.5148 -20.9701 23.0131Z" stroke="#96A9C6"/>
<path id="Path 3 Copy" fill-rule="evenodd" clip-rule="evenodd" d="M-13.955 49.7795C-56.8568 36.381 -100.97 14.0335 -146.133 54.8516C-191.296 95.6697 -219.689 131.426 -201.353 177.69C-183.018 223.955 -108.173 195.138 -86.4268 236.488C-64.6803 277.837 -112.462 315.365 -91.8623 352.165C-71.2625 388.966 -55.4229 412.552 10.7782 389.153C76.9794 365.754 70.8756 306.216 121.218 271.352C171.561 236.488 226.029 184.294 151.28 91.1621C76.5321 -1.96996 28.9467 63.1779 -13.955 49.7795Z" stroke="#96A9C6"/>
<path id="Path 3 Copy 2" fill-rule="evenodd" clip-rule="evenodd" d="M-1.60915 67.3925C-36.365 56.4766 -72.1024 38.2698 -108.69 71.5249C-145.277 104.78 -168.28 133.911 -153.425 171.603C-138.571 209.296 -77.9377 185.819 -60.3204 219.506C-42.7031 253.194 -81.4123 283.769 -64.7239 313.751C-48.0355 343.733 -35.2034 362.948 18.4279 343.885C72.0592 324.821 67.1144 276.315 107.898 247.911C148.683 219.506 192.808 176.984 132.253 101.108C71.6969 25.2316 33.1467 78.3084 -1.60915 67.3925Z" stroke="#96A9C6"/>
<path id="Path 3 Copy 5" fill-rule="evenodd" clip-rule="evenodd" d="M11.0901 89.4538C-16.9318 80.6919 -45.7451 66.0778 -75.2437 92.7708C-104.742 119.464 -123.288 142.847 -111.312 173.101C-99.3356 203.356 -50.4498 184.512 -36.2458 211.552C-22.0418 238.592 -53.2512 263.134 -39.7962 287.199C-26.3411 311.265 -15.9952 326.689 27.245 311.387C70.4853 296.086 66.4985 257.151 99.3806 234.351C132.263 211.552 167.839 177.42 119.016 116.516C70.1931 55.6123 39.112 98.2158 11.0901 89.4538Z" stroke="#96A9C6"/>
<path id="Path 3 Copy 4" fill-rule="evenodd" clip-rule="evenodd" d="M14.1202 103.262C-8.79691 96.1067 -32.3613 84.1718 -56.4862 105.971C-80.611 127.77 -95.7782 146.867 -85.9837 171.574C-76.1892 196.282 -36.2089 180.893 -24.5925 202.976C-12.9761 225.059 -38.5 245.101 -27.4961 264.755C-16.4921 284.408 -8.03096 297.005 27.3322 284.508C62.6953 272.012 59.4348 240.215 86.3268 221.595C113.219 202.976 142.314 175.101 102.385 125.363C62.4564 75.625 37.0373 110.418 14.1202 103.262Z" stroke="#96A9C6"/>
<path id="Path 3 Copy 3" fill-rule="evenodd" clip-rule="evenodd" d="M20.5714 113.419C1.99871 107.615 -17.0985 97.9327 -36.6499 115.617C-56.2014 133.301 -68.4932 148.792 -60.5555 168.836C-52.6178 188.88 -20.2167 176.395 -10.8025 194.309C-1.3882 212.224 -22.0735 228.482 -13.1556 244.426C-4.23771 260.369 2.61946 270.588 31.2787 260.45C59.9379 250.313 57.2955 224.519 79.0895 209.414C100.883 194.309 124.463 171.697 92.1037 131.348C59.7443 90.9994 39.144 119.224 20.5714 113.419Z" stroke="#96A9C6"/>
</g>
</svg>
