<svg width="375" height="173" viewBox="0 0 375 173" fill="none" xmlns="http://www.w3.org/2000/svg">
<g id="Background Shapes">
<path id="Path 3" fill-rule="evenodd" clip-rule="evenodd" d="M73.3612 139.675C149.064 163.368 226.904 202.887 306.596 130.705C386.289 58.5227 436.39 -4.7087 404.036 -86.5221C371.682 -168.336 239.614 -117.377 201.242 -190.499C162.869 -263.621 247.183 -329.984 210.833 -395.062C174.484 -460.14 146.534 -501.849 29.7179 -460.471C-87.0978 -419.092 -76.3273 -313.807 -165.16 -252.153C-253.993 -190.499 -350.104 -98.2003 -218.206 66.4938C-86.3085 231.188 -2.34138 115.981 73.3612 139.675Z" stroke="#DADADA"/>
<path id="Path 3 Copy" fill-rule="evenodd" clip-rule="evenodd" d="M63.895 101.751C125.478 120.991 188.8 153.081 253.629 94.4677C318.457 35.8543 359.214 -15.4907 332.895 -81.9248C306.575 -148.359 199.14 -106.98 167.924 -166.356C136.708 -225.732 205.296 -279.621 175.726 -332.465C146.157 -385.31 123.42 -419.178 28.3918 -385.578C-66.6362 -351.978 -57.8746 -266.484 -130.139 -216.42C-202.403 -166.356 -280.588 -91.4076 -173.291 42.327C-65.9941 176.062 2.31196 82.5115 63.895 101.751Z" stroke="#DADADA"/>
<path id="Path 3 Copy 2" fill-rule="evenodd" clip-rule="evenodd" d="M46.1881 76.5826C96.1497 92.281 147.522 118.465 200.117 70.6397C252.711 22.8147 285.777 -19.0797 264.424 -73.2859C243.071 -127.492 155.91 -93.7291 130.586 -142.176C105.261 -190.624 160.905 -234.594 136.916 -277.712C112.926 -320.829 94.4798 -348.464 17.3848 -321.048C-59.7101 -293.633 -52.602 -223.875 -111.229 -183.026C-169.856 -142.176 -233.287 -81.0233 -146.238 28.0961C-59.1892 137.215 -3.77337 60.8841 46.1881 76.5826Z" stroke="#DADADA"/>
<path id="Path 3 Copy 5" fill-rule="evenodd" clip-rule="evenodd" d="M27.6844 45.8163C67.9794 58.4115 109.412 79.4194 151.831 41.0481C194.25 2.67691 220.918 -30.9361 203.696 -74.427C186.475 -117.918 116.178 -90.8292 95.7527 -129.7C75.3276 -168.57 120.206 -203.848 100.858 -238.443C81.5099 -273.038 66.6326 -295.21 4.45386 -273.213C-57.7249 -251.217 -51.992 -195.248 -99.276 -162.474C-146.56 -129.7 -197.718 -80.635 -127.512 6.91428C-57.3048 94.4635 -12.6107 33.221 27.6844 45.8163Z" stroke="#DADADA"/>
<path id="Path 3 Copy 4" fill-rule="evenodd" clip-rule="evenodd" d="M22.9174 25.9542C55.8268 36.2494 89.6657 53.4211 124.31 22.0567C158.953 -9.30757 180.734 -36.7825 166.668 -72.3316C152.603 -107.881 95.191 -85.7386 78.5096 -117.511C61.8282 -149.283 98.4811 -178.12 82.6792 -206.397C66.8773 -234.674 54.7269 -252.797 3.94479 -234.818C-46.8373 -216.838 -42.1552 -171.09 -80.7726 -144.301C-119.39 -117.511 -161.171 -77.406 -103.833 -5.84398C-46.4942 65.718 -9.99203 15.6589 22.9174 25.9542Z" stroke="#DADADA"/>
<path id="Path 3 Copy 3" fill-rule="evenodd" clip-rule="evenodd" d="M13.7745 11.594C40.4931 19.9543 67.9662 33.8987 96.0929 8.42906C124.22 -17.0405 141.903 -39.3518 130.483 -68.2197C119.064 -97.0876 72.4521 -79.1069 58.9088 -104.908C45.3655 -130.709 75.1232 -154.125 62.294 -177.088C49.4648 -200.051 39.6001 -214.768 -1.62898 -200.168C-42.858 -185.567 -39.0567 -148.417 -70.4094 -126.663C-101.762 -104.908 -135.684 -72.3403 -89.1316 -14.2279C-42.5795 43.8845 -12.944 3.23364 13.7745 11.594Z" stroke="#DADADA"/>
</g>
</svg>
