<svg width="698" height="173" viewBox="0 0 698 173" fill="none" xmlns="http://www.w3.org/2000/svg">
<g id="Footer Background">
<path id="Path 3" fill-rule="evenodd" clip-rule="evenodd" d="M356.862 139.675C432.564 163.368 510.405 202.887 590.097 130.705C669.789 58.5227 719.891 -4.7087 687.537 -86.5221C655.182 -168.336 523.115 -117.377 484.742 -190.499C446.369 -263.621 530.683 -329.984 494.334 -395.062C457.984 -460.14 430.034 -501.849 313.218 -460.471C196.403 -419.092 207.173 -313.807 118.34 -252.153C29.5077 -190.499 -66.6035 -98.2003 65.2943 66.4938C197.192 231.188 281.159 115.981 356.862 139.675Z" stroke="#DADADA"/>
<path id="Path 3 Copy" fill-rule="evenodd" clip-rule="evenodd" d="M347.396 101.751C408.979 120.991 472.301 153.081 537.129 94.4677C601.958 35.8543 642.715 -15.4907 616.395 -81.9248C590.075 -148.359 482.64 -106.98 451.425 -166.356C420.209 -225.732 488.797 -279.621 459.227 -332.465C429.657 -385.31 406.92 -419.178 311.892 -385.578C216.864 -351.978 225.626 -266.484 153.362 -216.42C81.0975 -166.356 2.9123 -91.4076 110.209 42.327C217.506 176.062 285.813 82.5115 347.396 101.751Z" stroke="#DADADA"/>
<path id="Path 3 Copy 2" fill-rule="evenodd" clip-rule="evenodd" d="M329.689 76.5826C379.65 92.281 431.023 118.465 483.617 70.6397C536.212 22.8147 569.278 -19.0797 547.925 -73.2859C526.572 -127.492 439.411 -93.7291 414.086 -142.176C388.761 -190.624 444.406 -234.594 420.416 -277.712C396.427 -320.829 377.98 -348.464 300.885 -321.048C223.79 -293.633 230.899 -223.875 172.272 -183.026C113.644 -142.176 50.2138 -81.0233 137.263 28.0961C224.311 137.215 279.727 60.8841 329.689 76.5826Z" stroke="#DADADA"/>
<path id="Path 3 Copy 5" fill-rule="evenodd" clip-rule="evenodd" d="M311.185 45.8163C351.48 58.4115 392.913 79.4194 435.332 41.0481C477.75 2.67691 504.419 -30.9361 487.197 -74.427C469.975 -117.918 399.678 -90.8292 379.253 -129.7C358.828 -168.57 403.707 -203.848 384.359 -238.443C365.01 -273.038 350.133 -295.21 287.954 -273.213C225.776 -251.217 231.509 -195.248 184.225 -162.474C136.941 -129.7 85.7823 -80.635 155.989 6.91428C226.196 94.4635 270.89 33.221 311.185 45.8163Z" stroke="#DADADA"/>
<path id="Path 3 Copy 4" fill-rule="evenodd" clip-rule="evenodd" d="M306.418 25.9542C339.327 36.2494 373.166 53.4211 407.81 22.0567C442.454 -9.30757 464.234 -36.7825 450.169 -72.3316C436.104 -107.881 378.692 -85.7386 362.01 -117.511C345.329 -149.283 381.982 -178.12 366.18 -206.397C350.378 -234.674 338.227 -252.797 287.445 -234.818C236.663 -216.838 241.345 -171.09 202.728 -144.301C164.111 -117.511 122.329 -77.406 179.668 -5.84398C237.006 65.718 273.509 15.6589 306.418 25.9542Z" stroke="#DADADA"/>
<path id="Path 3 Copy 3" fill-rule="evenodd" clip-rule="evenodd" d="M297.275 11.594C323.994 19.9543 351.467 33.8987 379.593 8.42906C407.72 -17.0405 425.403 -39.3518 413.984 -68.2197C402.565 -97.0876 355.953 -79.1069 342.409 -104.908C328.866 -130.709 358.624 -154.125 345.795 -177.088C332.965 -200.051 323.101 -214.768 281.872 -200.168C240.643 -185.567 244.444 -148.417 213.091 -126.663C181.738 -104.908 147.817 -72.3403 194.369 -14.2279C240.921 43.8845 270.557 3.23364 297.275 11.594Z" stroke="#DADADA"/>
</g>
</svg>
