<svg width="112" height="18" viewBox="0 0 112 18" fill="none" xmlns="http://www.w3.org/2000/svg">
<path d="M39.5771 0C40.3622 0 41.1518 0.0429245 41.9443 0.128906C42.7367 0.214881 43.5085 0.336191 44.2598 0.493164C45.0111 0.650154 45.7344 0.839045 46.4297 1.05957C47.125 1.28011 47.772 1.52481 48.3701 1.79395L46.8115 4.66504C46.3181 4.44822 45.787 4.2486 45.2188 4.06543C44.6505 3.88226 44.0561 3.72345 43.4355 3.58887C42.815 3.45429 42.1734 3.34804 41.5117 3.26953C40.8503 3.19107 40.1759 3.15138 39.4883 3.15137C38.509 3.15137 37.703 3.22225 37.0713 3.36426C36.4395 3.50631 35.9363 3.68764 35.5625 3.9082C35.1887 4.12873 34.929 4.37559 34.7832 4.64844C34.6374 4.92134 34.5645 5.19275 34.5645 5.46191C34.5645 5.98518 34.8005 6.41343 35.2715 6.74609C35.7424 7.07854 36.4599 7.24506 37.4238 7.24512C37.8126 7.24512 38.26 7.21721 38.7646 7.16113L39.541 7.07227L40.3574 6.97559C40.9142 6.90832 41.4823 6.84707 42.0615 6.79102C42.641 6.73494 43.2042 6.70605 43.75 6.70605C44.7815 6.70609 45.6951 6.82299 46.4912 7.05469C47.2874 7.28645 47.9549 7.61701 48.4932 8.04688C49.0314 8.47675 49.4392 8.99618 49.7158 9.60547C49.9925 10.2148 50.1309 10.8972 50.1309 11.6523C50.1309 12.6617 49.897 13.5608 49.4297 14.3496C48.9624 15.1383 48.2971 15.8037 47.4336 16.3457C46.5701 16.8877 45.5291 17.2987 44.3105 17.5791C43.0919 17.8595 41.7346 18 40.2393 18C39.2523 18 38.2878 17.9388 37.3457 17.8154C36.4038 17.6921 35.5011 17.5161 34.6377 17.2881C33.7741 17.06 32.9512 16.7865 32.1699 16.4688C31.3888 16.151 30.6653 15.8021 30 15.4209L31.8955 12.5381C32.531 12.897 33.1759 13.2209 33.8301 13.5088C34.4841 13.7966 35.1626 14.0392 35.8652 14.2373C36.5679 14.4354 37.3064 14.5867 38.0801 14.6914C38.8539 14.7961 39.6789 14.8486 40.5537 14.8486C41.6077 14.8486 42.505 14.7799 43.2451 14.6416C43.985 14.5033 44.5885 14.3122 45.0557 14.0693C45.5228 13.8264 45.8631 13.5365 46.0762 13.2002C46.2893 12.8637 46.3965 12.4969 46.3965 12.1006C46.3964 11.4652 46.1304 10.9628 45.5996 10.5928C45.0688 10.2227 44.25 10.0371 43.1436 10.0371C42.6577 10.0371 42.1456 10.0693 41.6074 10.1328L40.7959 10.2324L39.9756 10.3398C39.4261 10.4146 38.8842 10.4843 38.3496 10.5479C37.815 10.6114 37.3119 10.6426 36.8408 10.6426C36.0559 10.6426 35.3025 10.5417 34.5811 10.3398C33.8597 10.138 33.22 9.83532 32.6631 9.43164C32.1063 9.02802 31.6638 8.5233 31.335 7.91797C31.006 7.31236 30.8408 6.60533 30.8408 5.79785C30.8408 5.31952 30.9063 4.84488 31.0371 4.37402C31.1679 3.90307 31.3773 3.45231 31.665 3.02246C31.9529 2.59255 32.3252 2.19236 32.7812 1.82227C33.2373 1.45219 33.7888 1.13243 34.4355 0.863281C35.0823 0.594146 35.8302 0.382754 36.6787 0.229492C37.5271 0.0762731 38.4933 1.98602e-05 39.5771 0ZM56.9385 9.88086C56.9385 10.6731 57.0469 11.3775 57.2637 11.9941C57.4804 12.6108 57.8036 13.1325 58.2334 13.5586C58.6633 13.9848 59.1965 14.3087 59.832 14.5293C60.4675 14.7498 61.208 14.8594 62.0527 14.8594C62.89 14.8593 63.6284 14.7498 64.2676 14.5293C64.9068 14.3087 65.4412 13.9847 65.8711 13.5586C66.3009 13.1325 66.624 12.6109 66.8408 11.9941C67.0576 11.3775 67.166 10.6731 67.166 9.88086V0.224609H70.7217V10.3066C70.7217 11.4578 70.5273 12.5044 70.1387 13.4463C69.7499 14.3882 69.1854 15.1963 68.4453 15.8691C67.7052 16.542 66.7983 17.0614 65.7256 17.4277C64.6528 17.7941 63.4283 17.9775 62.0527 17.9775C60.6772 17.9775 59.4527 17.794 58.3799 17.4277C57.3071 17.0614 56.4003 16.542 55.6602 15.8691C54.92 15.1962 54.3556 14.3883 53.9668 13.4463C53.5781 12.5043 53.3828 11.4579 53.3828 10.3066V0.224609H56.9385V9.88086ZM3.57715 17.7529H0V0.224609H3.57715V17.7529ZM22.5645 5.94434V0.224609H26.1191V17.7529H22.5645V9.71191L11.6416 4.02637V17.7529H8.08594V0.224609H11.6416L22.5645 5.94434ZM83.9668 0.224609C85.3124 0.22464 86.479 0.364187 87.4658 0.644531C88.4526 0.924904 89.2715 1.33053 89.9219 1.86133C90.5723 2.39216 91.0563 3.03917 91.374 3.80176C91.6918 4.56438 91.8506 5.42809 91.8506 6.39258C91.8506 7.04303 91.7722 7.66212 91.6152 8.24902C91.4582 8.83581 91.2168 9.37578 90.8916 9.86914C90.5664 10.3626 90.1565 10.8015 89.6631 11.1865C89.1696 11.5715 88.5902 11.8913 87.9248 12.1455L91.7383 17.7529H87.3867L84.0898 12.7734L78.6055 12.7627V17.7529H75.0508V0.224609H83.9668ZM110.983 3.3418H99.6113V6.84082H109.683V9.76855H99.6113V14.6465H111.219V17.7529H96.0557V0.224609H110.983V3.3418ZM78.6055 9.68945H84.0557C84.7285 9.68945 85.3176 9.61109 85.8223 9.4541C86.3269 9.29711 86.7497 9.07702 87.0898 8.79297C87.43 8.50885 87.6843 8.16236 87.8525 7.75488C88.0207 7.34749 88.1045 6.89337 88.1045 6.39258C88.1045 5.41315 87.7686 4.65567 87.0957 4.12109C86.4228 3.58651 85.4089 3.31934 84.0557 3.31934H78.6055V9.68945Z" fill="#2C2830"/>
</svg>
