<svg width="24" height="24" viewBox="0 0 24 24" fill="none" xmlns="http://www.w3.org/2000/svg">
<path d="M12 0C15.259 0 15.6682 0.0142422 16.9492 0.0732422C21.311 0.273313 23.7316 2.69898 23.9277 7.05273C23.9857 8.33273 24 8.741 24 12C24 15.259 23.9858 15.6682 23.9268 16.9482C23.7297 21.31 21.302 23.7277 16.9482 23.9277C15.6682 23.9857 15.259 24 12 24C8.741 24 8.33276 23.9857 7.05176 23.9277C2.69 23.7277 0.272344 21.306 0.0722656 16.9482C0.0142656 15.6682 0 15.259 0 12C0 8.741 0.0142422 8.33276 0.0732422 7.05176C0.27332 2.69001 2.69499 0.272352 7.05273 0.0722656C8.33273 0.0142656 8.741 0 12 0ZM12 2.16309C8.79629 2.16309 8.41709 2.17544 7.15137 2.23242C3.89637 2.38042 2.38142 3.92437 2.23242 7.15137C2.17544 8.41709 2.16211 8.79629 2.16211 12C2.16211 15.2047 2.17444 15.5839 2.23242 16.8486C2.38042 20.0696 3.89137 21.6196 7.15137 21.7686C8.41609 21.8265 8.79629 21.8389 12 21.8389C15.2057 21.8389 15.5839 21.8265 16.8496 21.7686C20.1046 21.6206 21.6196 20.0746 21.7686 16.8496C21.8255 15.5849 21.8379 15.2057 21.8379 12.001C21.8379 8.79727 21.8265 8.41708 21.7686 7.15234C21.6206 3.92434 20.1016 2.3814 16.8496 2.2334C15.9004 2.18991 15.4492 2.17211 13.9316 2.16602L12 2.16309ZM12 5.83789C15.403 5.83789 18.1621 8.597 18.1621 12C18.1621 15.404 15.403 18.1631 12 18.1631C8.597 18.1631 5.83789 15.403 5.83789 12C5.83789 8.597 8.597 5.83789 12 5.83789ZM12 8C9.791 8 8 9.791 8 12C8 14.21 9.791 16 12 16C14.209 16 16 14.21 16 12C16 9.791 14.209 8 12 8ZM18.4062 4.15527C19.201 4.15541 19.8446 4.79994 19.8447 5.59473C19.8447 6.38964 19.2011 7.03502 18.4062 7.03516C17.6103 7.03516 16.9648 6.38973 16.9648 5.59473C16.965 4.79985 17.6103 4.15527 18.4062 4.15527Z" fill="#837D88"/>
</svg>
